<svg width="117" height="18" viewBox="0 0 117 18" fill="none" xmlns="http://www.w3.org/2000/svg">
<path d="M0.924 9.344C0.924 12.776 1.232 17.264 6.116 17.264C11 17.264 11.308 12.776 11.308 9.344C11.308 5.89 11 1.402 6.116 1.402C1.232 1.402 0.924 5.89 0.924 9.344ZM2.904 9.322C2.904 7.012 2.926 3.052 6.116 3.052C9.306 3.052 9.328 7.012 9.328 9.322C9.328 11.654 9.306 15.614 6.116 15.614C2.926 15.614 2.904 11.654 2.904 9.322ZM20.0566 1.402H18.6266C18.2086 3.756 16.2726 4.328 14.1386 4.328V5.824H18.1866V17H20.0566V1.402Z" fill="#1B3B36"/>
<path d="M0.924 9.344C0.924 12.776 1.232 17.264 6.116 17.264C11 17.264 11.308 12.776 11.308 9.344C11.308 5.89 11 1.402 6.116 1.402C1.232 1.402 0.924 5.89 0.924 9.344ZM2.904 9.322C2.904 7.012 2.926 3.052 6.116 3.052C9.306 3.052 9.328 7.012 9.328 9.322C9.328 11.654 9.306 15.614 6.116 15.614C2.926 15.614 2.904 11.654 2.904 9.322ZM20.0566 1.402H18.6266C18.2086 3.756 16.2726 4.328 14.1386 4.328V5.824H18.1866V17H20.0566V1.402Z" fill="black" fill-opacity="0.2"/>
<path d="M54.6685 17.374H56.2745L62.7865 0.918H61.1805L54.6685 17.374ZM93.9299 9.344C93.9299 12.776 94.2379 17.264 99.1219 17.264C104.006 17.264 104.314 12.776 104.314 9.344C104.314 5.89 104.006 1.402 99.1219 1.402C94.2379 1.402 93.9299 5.89 93.9299 9.344ZM95.9099 9.322C95.9099 7.012 95.9319 3.052 99.1219 3.052C102.312 3.052 102.334 7.012 102.334 9.322C102.334 11.654 102.312 15.614 99.1219 15.614C95.9319 15.614 95.9099 11.654 95.9099 9.322ZM114.448 1.402H112.952L105.846 11.544V13.348H112.688V17H114.448V13.348H116.56V11.698H114.448V1.402ZM107.452 11.698L112.644 4.064H112.688V11.698H107.452Z" fill="#1B3B36" fill-opacity="0.32"/>
</svg>
