<svg width="856" height="195" viewBox="0 0 856 195" fill="none" xmlns="http://www.w3.org/2000/svg">
<path d="M40 46.875C52.5 43.875 61.875 36.875 61.875 25C61.875 8.75 44.25 1.49999 24.875 1.49999H3.5L3.5 89H13.375L13.375 48.5H24.875C26.875 48.5 28.75 48.5 30.625 48.375L53.75 89H64.5L40 46.875ZM24.875 47.625H13.375V2.5H24.875C48.625 2.5 52 15.25 52 25C52 34.75 48.625 47.625 24.875 47.625ZM115.074 0.249995C90.3242 0.249995 68.3242 20.25 68.3242 45C68.3242 69.625 90.3242 89.625 115.074 89.625C139.699 89.625 161.824 69.625 161.824 45C161.824 20.25 139.699 0.249995 115.074 0.249995ZM115.074 88.625C93.1992 88.625 78.8242 68 78.8242 45C78.8242 21.875 93.1992 1.375 115.074 1.375C136.824 1.375 151.324 21.875 151.324 45C151.324 68 136.824 88.625 115.074 88.625ZM214.806 0.249995C190.056 0.249995 168.056 20.25 168.056 45C168.056 69.625 190.056 89.625 214.806 89.625C239.431 89.625 261.556 69.625 261.556 45C261.556 20.25 239.431 0.249995 214.806 0.249995ZM214.806 88.625C192.931 88.625 178.556 68 178.556 45C178.556 21.875 192.931 1.375 214.806 1.375C236.556 1.375 251.056 21.875 251.056 45C251.056 68 236.556 88.625 214.806 88.625ZM344.816 1.49999L312.941 56.875L277.066 1.49999H266.566L271.441 8.99999V89H272.441V10.5L308.191 65H309.316L343.691 5.25V89H353.566V1.49999L344.816 1.49999ZM374.987 16.375C375.737 7.5 381.362 1.875 393.987 1.875C402.237 1.875 414.237 7.37499 423.237 21.25V8.25C416.487 3.87499 406.237 0.249995 397.112 0.249995C377.237 0.249995 370.237 12.25 370.237 22.625C370.237 54.125 426.737 45.875 423.362 72.375C422.237 82 413.362 87.625 401.612 87.625C385.737 87.625 371.362 75.375 364.862 63V80C374.237 86.125 387.612 89.625 397.737 89.625C415.487 89.625 428.987 79.125 428.987 64.25C428.987 34.375 372.987 41.375 374.987 16.375ZM94.625 121.25C91.875 116.5 86.375 114.75 80.75 118.75C75.625 122.25 72.375 132 67.625 141.5C63.375 149.875 59.5 158.5 54.375 161.625C50.5 164 45.875 164.5 44.625 160.875C43.125 156.625 48.5 151.75 56.5 147.375L56.125 146.625C48.25 151 37 157.375 39.875 164C41.75 168.25 48.625 168.125 53.875 164.125C58.75 160.625 62.25 154.625 65.25 148.5C78.875 154.875 77.625 193.375 41.125 193.375C24.75 193.375 14.625 183.125 13.625 172.25C12 154.25 23 140.75 43.125 148C43.375 147.625 43.5 147.25 43.5 147.25C28.5 141.875 20.25 132.25 20.25 121.25C20.25 113.875 22.5 108 28.625 105.375C36.875 102 50.375 108.375 58.625 122.25L58.625 108.75C22.625 95 11.375 113 10.75 122C9.625 137.5 26.75 141.875 36.875 145.25C18.25 140.5 0.75 152.125 3.875 171.5C5.625 182.375 19.5 194.625 40.5 194.625C77.375 194.625 79.125 158.625 68.375 149.5C72.75 150.75 78 151.125 83.875 147.375C92.875 141.625 99.5 129.375 94.625 121.25ZM83.5 146.75C76.125 151.625 69.125 149.25 65.75 147.625C66.625 145.625 67.625 143.625 68.5 141.625C72.25 134 75.875 124.75 79.125 122.625C82.625 120.25 86.5 120.625 89.75 125.5C93.75 131.375 91.5 141.5 83.5 146.75ZM190.844 194H200.719L166.969 106.5H157.094L161.219 117.25L133.969 194H134.969L146.844 160.375H177.844L190.844 194ZM147.219 159.5L161.719 118.5L177.469 159.5H147.219ZM225.433 106.5H209.433V194H219.308V157.625H225.433C250.058 157.625 266.433 149.625 266.433 132C266.433 114.375 250.058 106.5 225.433 106.5ZM225.433 156.625H219.308V107.5H225.433C247.933 107.5 256.558 117.25 256.558 132C256.558 146.75 247.933 156.625 225.433 156.625ZM318.285 194H328.16L294.41 106.5H284.535L288.66 117.25L261.41 194H262.41L274.285 160.375H305.285L318.285 194ZM274.66 159.5L289.16 118.5L304.91 159.5H274.66ZM373.374 151.875C385.874 148.875 395.249 141.875 395.249 130C395.249 113.75 377.624 106.5 358.249 106.5H336.874V194H346.749V153.5H358.249C360.249 153.5 362.124 153.5 363.999 153.375L387.124 194H397.874L373.374 151.875ZM358.249 152.625H346.749V107.5H358.249C381.999 107.5 385.374 120.25 385.374 130C385.374 139.75 381.999 152.625 358.249 152.625ZM401.635 106.5V114.25L433.135 107.5V194H442.885V107.5L474.385 114.25V106.5H401.635ZM560.148 106.5L528.273 161.875L492.398 106.5H481.898L486.773 114V194H487.773V115.5L523.523 170H524.648L559.023 110.25V194H568.898V106.5H560.148ZM593.819 193.125V145.25L625.319 148V141.625L593.819 144.375V107.5L627.944 114.25V106.5H583.944V194H629.319V186.375L593.819 193.125ZM703.556 106.5V178.25L646.931 106.5H634.306L642.306 116.625V194H643.181V117.875L702.681 194H704.556V106.5H703.556ZM715.844 106.5V114.25L747.344 107.5V194H757.094V107.5L788.594 114.25V106.5L715.844 106.5ZM801.257 121.375C802.007 112.5 807.632 106.875 820.257 106.875C828.507 106.875 840.507 112.375 849.507 126.25V113.25C842.757 108.875 832.507 105.25 823.382 105.25C803.507 105.25 796.507 117.25 796.507 127.625C796.507 159.125 853.007 150.875 849.632 177.375C848.507 187 839.632 192.625 827.882 192.625C812.007 192.625 797.632 180.375 791.132 168V185C800.507 191.125 813.882 194.625 824.007 194.625C841.757 194.625 855.257 184.125 855.257 169.25C855.257 139.375 799.257 146.375 801.257 121.375Z" fill="#1B3B36"/>
<path d="M40 46.875C52.5 43.875 61.875 36.875 61.875 25C61.875 8.75 44.25 1.49999 24.875 1.49999H3.5L3.5 89H13.375L13.375 48.5H24.875C26.875 48.5 28.75 48.5 30.625 48.375L53.75 89H64.5L40 46.875ZM24.875 47.625H13.375V2.5H24.875C48.625 2.5 52 15.25 52 25C52 34.75 48.625 47.625 24.875 47.625ZM115.074 0.249995C90.3242 0.249995 68.3242 20.25 68.3242 45C68.3242 69.625 90.3242 89.625 115.074 89.625C139.699 89.625 161.824 69.625 161.824 45C161.824 20.25 139.699 0.249995 115.074 0.249995ZM115.074 88.625C93.1992 88.625 78.8242 68 78.8242 45C78.8242 21.875 93.1992 1.375 115.074 1.375C136.824 1.375 151.324 21.875 151.324 45C151.324 68 136.824 88.625 115.074 88.625ZM214.806 0.249995C190.056 0.249995 168.056 20.25 168.056 45C168.056 69.625 190.056 89.625 214.806 89.625C239.431 89.625 261.556 69.625 261.556 45C261.556 20.25 239.431 0.249995 214.806 0.249995ZM214.806 88.625C192.931 88.625 178.556 68 178.556 45C178.556 21.875 192.931 1.375 214.806 1.375C236.556 1.375 251.056 21.875 251.056 45C251.056 68 236.556 88.625 214.806 88.625ZM344.816 1.49999L312.941 56.875L277.066 1.49999H266.566L271.441 8.99999V89H272.441V10.5L308.191 65H309.316L343.691 5.25V89H353.566V1.49999L344.816 1.49999ZM374.987 16.375C375.737 7.5 381.362 1.875 393.987 1.875C402.237 1.875 414.237 7.37499 423.237 21.25V8.25C416.487 3.87499 406.237 0.249995 397.112 0.249995C377.237 0.249995 370.237 12.25 370.237 22.625C370.237 54.125 426.737 45.875 423.362 72.375C422.237 82 413.362 87.625 401.612 87.625C385.737 87.625 371.362 75.375 364.862 63V80C374.237 86.125 387.612 89.625 397.737 89.625C415.487 89.625 428.987 79.125 428.987 64.25C428.987 34.375 372.987 41.375 374.987 16.375ZM94.625 121.25C91.875 116.5 86.375 114.75 80.75 118.75C75.625 122.25 72.375 132 67.625 141.5C63.375 149.875 59.5 158.5 54.375 161.625C50.5 164 45.875 164.5 44.625 160.875C43.125 156.625 48.5 151.75 56.5 147.375L56.125 146.625C48.25 151 37 157.375 39.875 164C41.75 168.25 48.625 168.125 53.875 164.125C58.75 160.625 62.25 154.625 65.25 148.5C78.875 154.875 77.625 193.375 41.125 193.375C24.75 193.375 14.625 183.125 13.625 172.25C12 154.25 23 140.75 43.125 148C43.375 147.625 43.5 147.25 43.5 147.25C28.5 141.875 20.25 132.25 20.25 121.25C20.25 113.875 22.5 108 28.625 105.375C36.875 102 50.375 108.375 58.625 122.25L58.625 108.75C22.625 95 11.375 113 10.75 122C9.625 137.5 26.75 141.875 36.875 145.25C18.25 140.5 0.75 152.125 3.875 171.5C5.625 182.375 19.5 194.625 40.5 194.625C77.375 194.625 79.125 158.625 68.375 149.5C72.75 150.75 78 151.125 83.875 147.375C92.875 141.625 99.5 129.375 94.625 121.25ZM83.5 146.75C76.125 151.625 69.125 149.25 65.75 147.625C66.625 145.625 67.625 143.625 68.5 141.625C72.25 134 75.875 124.75 79.125 122.625C82.625 120.25 86.5 120.625 89.75 125.5C93.75 131.375 91.5 141.5 83.5 146.75ZM190.844 194H200.719L166.969 106.5H157.094L161.219 117.25L133.969 194H134.969L146.844 160.375H177.844L190.844 194ZM147.219 159.5L161.719 118.5L177.469 159.5H147.219ZM225.433 106.5H209.433V194H219.308V157.625H225.433C250.058 157.625 266.433 149.625 266.433 132C266.433 114.375 250.058 106.5 225.433 106.5ZM225.433 156.625H219.308V107.5H225.433C247.933 107.5 256.558 117.25 256.558 132C256.558 146.75 247.933 156.625 225.433 156.625ZM318.285 194H328.16L294.41 106.5H284.535L288.66 117.25L261.41 194H262.41L274.285 160.375H305.285L318.285 194ZM274.66 159.5L289.16 118.5L304.91 159.5H274.66ZM373.374 151.875C385.874 148.875 395.249 141.875 395.249 130C395.249 113.75 377.624 106.5 358.249 106.5H336.874V194H346.749V153.5H358.249C360.249 153.5 362.124 153.5 363.999 153.375L387.124 194H397.874L373.374 151.875ZM358.249 152.625H346.749V107.5H358.249C381.999 107.5 385.374 120.25 385.374 130C385.374 139.75 381.999 152.625 358.249 152.625ZM401.635 106.5V114.25L433.135 107.5V194H442.885V107.5L474.385 114.25V106.5H401.635ZM560.148 106.5L528.273 161.875L492.398 106.5H481.898L486.773 114V194H487.773V115.5L523.523 170H524.648L559.023 110.25V194H568.898V106.5H560.148ZM593.819 193.125V145.25L625.319 148V141.625L593.819 144.375V107.5L627.944 114.25V106.5H583.944V194H629.319V186.375L593.819 193.125ZM703.556 106.5V178.25L646.931 106.5H634.306L642.306 116.625V194H643.181V117.875L702.681 194H704.556V106.5H703.556ZM715.844 106.5V114.25L747.344 107.5V194H757.094V107.5L788.594 114.25V106.5L715.844 106.5ZM801.257 121.375C802.007 112.5 807.632 106.875 820.257 106.875C828.507 106.875 840.507 112.375 849.507 126.25V113.25C842.757 108.875 832.507 105.25 823.382 105.25C803.507 105.25 796.507 117.25 796.507 127.625C796.507 159.125 853.007 150.875 849.632 177.375C848.507 187 839.632 192.625 827.882 192.625C812.007 192.625 797.632 180.375 791.132 168V185C800.507 191.125 813.882 194.625 824.007 194.625C841.757 194.625 855.257 184.125 855.257 169.25C855.257 139.375 799.257 146.375 801.257 121.375Z" fill="black" fill-opacity="0.2"/>
</svg>
